# Blender 4.5.3 LTS
# www.blender.org
mtllib wizard.mtl
o Hands
v 1.094075 -0.714807 0.139987
v 1.094075 -0.570193 0.139987
v 1.094075 -0.714807 -0.139987
v 1.094075 -0.570193 -0.139987
v 1.268913 -0.714807 0.139987
v 1.268913 -0.570193 0.139987
v 1.268913 -0.714807 -0.139987
v 1.268913 -0.570193 -0.139987
v 1.267954 -0.569217 0.139969
v 1.267954 -2.569217 -0.139969
v 1.267954 -0.569217 -0.139969
v 1.539305 -2.569217 0.139969
v 1.539305 -0.569217 0.139969
v 1.539305 -0.569217 -0.139969
v 1.539305 -2.569217 -0.139969
v 1.267954 -2.569217 0.139969
v -1.094075 -0.714807 0.139987
v -1.094075 -0.570193 0.139987
v -1.094075 -0.714807 -0.139987
v -1.094075 -0.570193 -0.139987
v -1.268913 -0.714807 0.139987
v -1.268913 -0.570193 0.139987
v -1.268913 -0.714807 -0.139987
v -1.268913 -0.570193 -0.139987
v -1.267954 -0.569217 0.139969
v -1.267954 -2.569217 -0.139969
v -1.267954 -0.569217 -0.139969
v -1.539305 -2.569217 0.139969
v -1.539305 -0.569217 0.139969
v -1.539305 -0.569217 -0.139969
v -1.539305 -2.569217 -0.139969
v -1.267954 -2.569217 0.139969
vn -1.0000 -0.0000 -0.0000
vn -0.0000 -0.0000 -1.0000
vn 1.0000 -0.0000 -0.0000
vn -0.0000 -0.0000 1.0000
vn -0.0000 -1.0000 -0.0000
vn -0.0000 1.0000 -0.0000
vt 0.375000 0.000000
vt 0.625000 0.000000
vt 0.625000 0.250000
vt 0.375000 0.250000
vt 0.625000 0.500000
vt 0.375000 0.500000
vt 0.625000 0.750000
vt 0.375000 0.750000
vt 0.625000 1.000000
vt 0.375000 1.000000
vt 0.125000 0.500000
vt 0.125000 0.750000
vt 0.875000 0.500000
vt 0.875000 0.750000
s 0
f 1/1/1 2/2/1 4/3/1 3/4/1
f 3/4/2 4/3/2 8/5/2 7/6/2
f 7/6/3 8/5/3 6/7/3 5/8/3
f 5/8/4 6/7/4 2/9/4 1/10/4
f 3/11/5 7/6/5 5/8/5 1/12/5
f 8/5/6 4/13/6 2/14/6 6/7/6
f 16/1/1 9/2/1 11/3/1 10/4/1
f 10/4/2 11/3/2 14/5/2 15/6/2
f 15/6/3 14/5/3 13/7/3 12/8/3
f 12/8/4 13/7/4 9/9/4 16/10/4
f 14/5/6 11/13/6 9/14/6 13/7/6
f 10/11/5 15/6/5 12/8/5 16/12/5
f 17/1/3 19/4/3 20/3/3 18/2/3
f 19/4/2 23/6/2 24/5/2 20/3/2
f 23/6/1 21/8/1 22/7/1 24/5/1
f 21/8/4 17/10/4 18/9/4 22/7/4
f 19/11/5 17/12/5 21/8/5 23/6/5
f 24/5/6 22/7/6 18/14/6 20/13/6
f 32/1/3 26/4/3 27/3/3 25/2/3
f 26/4/2 31/6/2 30/5/2 27/3/2
f 31/6/1 28/8/1 29/7/1 30/5/1
f 28/8/4 32/10/4 25/9/4 29/7/4
f 30/5/6 29/7/6 25/14/6 27/13/6
f 26/11/5 32/12/5 28/8/5 31/6/5
o Torso
v -1.096351 -3.811751 0.303030
v -1.096351 -0.568759 0.303030
v -1.096351 -3.811751 -0.303030
v -1.096351 -0.568759 -0.303030
v 1.096351 -3.811751 0.303030
v 1.096351 -0.568759 0.303030
v 1.096351 -3.811751 -0.303030
v 1.096351 -0.568759 -0.303030
vn -1.0000 -0.0000 -0.0000
vn -0.0000 -0.0000 -1.0000
vn 1.0000 -0.0000 -0.0000
vn -0.0000 -0.0000 1.0000
vn -0.0000 -1.0000 -0.0000
vn -0.0000 1.0000 -0.0000
vt 0.375000 0.000000
vt 0.625000 0.000000
vt 0.625000 0.250000
vt 0.375000 0.250000
vt 0.625000 0.500000
vt 0.375000 0.500000
vt 0.625000 0.750000
vt 0.375000 0.750000
vt 0.625000 1.000000
vt 0.375000 1.000000
vt 0.125000 0.500000
vt 0.125000 0.750000
vt 0.875000 0.500000
vt 0.875000 0.750000
s 0
usemtl Torso
f 33/15/7 34/16/7 36/17/7 35/18/7
f 35/18/8 36/17/8 40/19/8 39/20/8
f 39/20/9 40/19/9 38/21/9 37/22/9
f 37/22/10 38/21/10 34/23/10 33/24/10
f 35/25/11 39/20/11 37/22/11 33/26/11
f 40/19/12 36/27/12 34/28/12 38/21/12
o Head
v 0.000000 0.677442 -0.636396
v 0.000000 -0.595350 -0.636396
v 0.497554 0.677442 -0.396786
v 0.703648 0.041046 -0.561141
v 0.497554 -0.595350 -0.396786
v 0.620440 0.677442 0.141611
v 0.877435 0.041046 0.200269
v 0.620440 -0.595350 0.141611
v 0.276122 0.677442 0.573373
v 0.390495 0.041046 0.810872
v 0.276122 -0.595350 0.573373
v 0.000000 -0.858954 0.000000
v 0.000000 0.941046 0.000000
v -0.276122 0.677442 0.573373
v -0.390495 0.041046 0.810872
v -0.276122 -0.595350 0.573373
v -0.620440 0.677442 0.141611
v -0.877435 0.041046 0.200269
v -0.620440 -0.595350 0.141611
v -0.497555 0.677442 -0.396787
v -0.703648 0.041046 -0.561141
v -0.497555 -0.595350 -0.396787
v 0.000000 0.041046 -0.900000
vn 0.1812 -0.9086 -0.3763
vn 0.4065 0.3496 -0.8441
vn 0.4065 -0.3496 -0.8441
vn 0.1812 0.9086 -0.3763
vn 0.9134 0.3496 -0.2085
vn 0.9134 -0.3496 -0.2085
vn 0.4072 0.9086 -0.0929
vn 0.4072 -0.9086 -0.0929
vn 0.3266 -0.9086 0.2604
vn 0.7325 0.3496 0.5841
vn 0.7325 -0.3496 0.5841
vn 0.3266 0.9086 0.2604
vn -0.0000 -0.9086 0.4177
vn -0.0000 0.3496 0.9369
vn -0.0000 -0.3496 0.9369
vn -0.0000 0.9086 0.4177
vn -0.3266 -0.9086 0.2604
vn -0.7325 0.3496 0.5841
vn -0.7325 -0.3496 0.5841
vn -0.3266 0.9086 0.2604
vn -0.4072 -0.9086 -0.0929
vn -0.9134 0.3496 -0.2085
vn -0.9134 -0.3496 -0.2085
vn -0.4072 0.9086 -0.0929
vn -0.1812 0.9086 -0.3763
vn -0.1812 -0.9086 -0.3763
vn -0.4065 0.3496 -0.8441
vn -0.4065 -0.3496 -0.8441
vt 0.642857 0.000000
vt 0.714286 0.250000
vt 0.571429 0.250000
vt 0.714286 0.500000
vt 0.714286 0.750000
vt 0.571429 0.750000
vt 0.571429 0.500000
vt 0.642857 1.000000
vt 0.428571 0.750000
vt 0.428571 0.500000
vt 0.428571 0.250000
vt 0.500000 1.000000
vt 0.500000 0.000000
vt 0.357143 0.000000
vt 0.285714 0.250000
vt 0.285714 0.750000
vt 0.285714 0.500000
vt 0.357143 1.000000
vt 0.214286 0.000000
vt 0.142857 0.250000
vt 0.142857 0.750000
vt 0.142857 0.500000
vt 0.214286 1.000000
vt 0.071429 0.000000
vt 0.000000 0.250000
vt 0.000000 0.750000
vt 0.000000 0.500000
vt 0.071429 1.000000
vt 0.928571 0.000000
vt 1.000000 0.250000
vt 0.857143 0.250000
vt 1.000000 0.500000
vt 1.000000 0.750000
vt 0.857143 0.750000
vt 0.857143 0.500000
vt 0.928571 1.000000
vt 0.785714 1.000000
vt 0.785714 0.000000
s 0
usemtl Head
f 52/29/13 42/30/13 45/31/13
f 63/32/14 41/33/14 43/34/14 44/35/14
f 42/30/15 63/32/15 44/35/15 45/31/15
f 41/33/16 53/36/16 43/34/16
f 44/35/17 43/34/17 46/37/17 47/38/17
f 45/31/18 44/35/18 47/38/18 48/39/18
f 43/34/19 53/40/19 46/37/19
f 52/41/20 45/31/20 48/39/20
f 52/42/21 48/39/21 51/43/21
f 47/38/22 46/37/22 49/44/22 50/45/22
f 48/39/23 47/38/23 50/45/23 51/43/23
f 46/37/24 53/46/24 49/44/24
f 52/47/25 51/43/25 56/48/25
f 50/45/26 49/44/26 54/49/26 55/50/26
f 51/43/27 50/45/27 55/50/27 56/48/27
f 49/44/28 53/51/28 54/49/28
f 52/52/29 56/48/29 59/53/29
f 55/50/30 54/49/30 57/54/30 58/55/30
f 56/48/31 55/50/31 58/55/31 59/53/31
f 54/49/32 53/56/32 57/54/32
f 52/57/33 59/58/33 62/59/33
f 58/60/34 57/61/34 60/62/34 61/63/34
f 59/58/35 58/60/35 61/63/35 62/59/35
f 57/61/36 53/64/36 60/62/36
f 60/62/37 53/65/37 41/33/37
f 52/66/38 62/59/38 42/30/38
f 61/63/39 60/62/39 41/33/39 63/32/39
f 62/59/40 61/63/40 63/32/40 42/30/40
o Beard
v 0.000000 0.069242 -0.149043
v 0.531904 0.069243 -0.259947
v 0.752226 0.069243 -0.527692
v 0.531904 0.069243 -0.795436
v 0.000000 0.069243 -0.906340
v -0.531904 0.069243 -0.795436
v -0.752226 0.069243 -0.527692
v -0.531904 0.069243 -0.259947
v 0.000000 -1.930758 -0.527692
vn 0.2007 -0.1822 0.9626
vn 0.7415 -0.2789 0.6102
vn 0.7415 -0.2789 -0.6102
vn 0.2007 -0.1822 -0.9626
vn -0.2007 -0.1822 -0.9626
vn -0.7415 -0.2789 -0.6102
vn -0.0000 1.0000 -0.0000
vn -0.7415 -0.2789 0.6102
vn -0.2007 -0.1822 0.9626
vt 0.250000 0.490000
vt 0.250000 0.250000
vt 0.419706 0.419706
vt 0.490000 0.250000
vt 0.419706 0.080294
vt 0.250000 0.010000
vt 0.080294 0.080294
vt 0.010000 0.250000
vt 0.750000 0.490000
vt 0.919706 0.419706
vt 0.990000 0.250000
vt 0.919706 0.080294
vt 0.750000 0.010000
vt 0.580294 0.080294
vt 0.510000 0.250000
vt 0.580294 0.419706
vt 0.080294 0.419706
s 0
usemtl Beard
f 64/67/41 72/68/41 65/69/41
f 65/69/42 72/68/42 66/70/42
f 66/70/43 72/68/43 67/71/43
f 67/71/44 72/68/44 68/72/44
f 68/72/45 72/68/45 69/73/45
f 69/73/46 72/68/46 70/74/46
f 64/75/47 65/76/47 66/77/47 67/78/47 68/79/47 69/80/47 70/81/47 71/82/47
f 70/74/48 72/68/48 71/83/48
f 71/83/49 72/68/49 64/67/49
o Hat
v 0.000000 0.676474 -1.000000
v 0.707107 0.676474 -0.707107
v 1.000000 0.676474 0.000000
v 0.707107 0.676474 0.707107
v 0.000000 0.676474 1.000000
v -0.707107 0.676474 0.707107
v -1.000000 0.676474 0.000000
v -0.707107 0.676474 -0.707107
v 0.000000 2.676474 0.000000
vn 0.3474 0.4194 -0.8387
vn 0.8387 0.4194 -0.3474
vn 0.8387 0.4194 0.3474
vn 0.3474 0.4194 0.8387
vn -0.3474 0.4194 0.8387
vn -0.8387 0.4194 0.3474
vn -0.0000 -1.0000 -0.0000
vn -0.8387 0.4194 -0.3474
vn -0.3474 0.4194 -0.8387
vt 0.250000 0.490000
vt 0.250000 0.250000
vt 0.419706 0.419706
vt 0.490000 0.250000
vt 0.419706 0.080294
vt 0.250000 0.010000
vt 0.080294 0.080294
vt 0.010000 0.250000
vt 0.750000 0.490000
vt 0.919706 0.419706
vt 0.990000 0.250000
vt 0.919706 0.080294
vt 0.750000 0.010000
vt 0.580294 0.080294
vt 0.510000 0.250000
vt 0.580294 0.419706
vt 0.080294 0.419706
s 0
usemtl Hat
f 73/84/50 81/85/50 74/86/50
f 74/86/51 81/85/51 75/87/51
f 75/87/52 81/85/52 76/88/52
f 76/88/53 81/85/53 77/89/53
f 77/89/54 81/85/54 78/90/54
f 78/90/55 81/85/55 79/91/55
f 73/92/56 74/93/56 75/94/56 76/95/56 77/96/56 78/97/56 79/98/56 80/99/56
f 79/91/57 81/85/57 80/100/57
f 80/100/58 81/85/58 73/84/58
o LEye
v -0.286375 0.511565 -0.633113
v -0.286375 0.403701 -0.633113
v -0.244209 0.511565 -0.612807
v -0.226743 0.457633 -0.626736
v -0.244209 0.403701 -0.612807
v -0.233795 0.511565 -0.567180
v -0.212016 0.457633 -0.562209
v -0.233795 0.403701 -0.567180
v -0.262975 0.511565 -0.530590
v -0.253282 0.457633 -0.510463
v -0.262975 0.403701 -0.530590
v -0.286375 0.381361 -0.579181
v -0.286375 0.533904 -0.579181
v -0.309775 0.511565 -0.530590
v -0.319468 0.457633 -0.510463
v -0.309775 0.403701 -0.530590
v -0.338955 0.511565 -0.567180
v -0.360734 0.457633 -0.562209
v -0.338955 0.403701 -0.567180
v -0.328541 0.511565 -0.612807
v -0.346006 0.457633 -0.626736
v -0.328541 0.403701 -0.612807
v -0.286375 0.457633 -0.655453
vn 0.4065 -0.3496 -0.8441
vn 0.1812 0.9086 -0.3763
vn 0.1812 -0.9086 -0.3763
vn 0.4065 0.3496 -0.8441
vn 0.4072 0.9086 -0.0929
vn 0.4072 -0.9086 -0.0929
vn 0.9134 0.3496 -0.2085
vn 0.9134 -0.3496 -0.2085
vn 0.7325 -0.3496 0.5841
vn 0.3266 0.9086 0.2604
vn 0.3266 -0.9086 0.2604
vn 0.7325 0.3496 0.5841
vn -0.0000 -0.3496 0.9369
vn -0.0000 0.9086 0.4177
vn -0.0000 -0.9086 0.4177
vn -0.0000 0.3496 0.9369
vn -0.7325 -0.3496 0.5841
vn -0.3266 0.9086 0.2604
vn -0.3266 -0.9086 0.2604
vn -0.7325 0.3496 0.5841
vn -0.9134 -0.3496 -0.2085
vn -0.4072 0.9086 -0.0929
vn -0.4072 -0.9086 -0.0929
vn -0.9134 0.3496 -0.2085
vn -0.4065 -0.3496 -0.8441
vn -0.1812 0.9086 -0.3763
vn -0.1812 -0.9086 -0.3763
vn -0.4065 0.3496 -0.8441
vt 0.714286 0.250000
vt 0.714286 0.500000
vt 0.571429 0.500000
vt 0.571429 0.250000
vt 0.714286 0.750000
vt 0.642857 1.000000
vt 0.571429 0.750000
vt 0.642857 0.000000
vt 0.500000 1.000000
vt 0.428571 0.750000
vt 0.500000 0.000000
vt 0.428571 0.250000
vt 0.428571 0.500000
vt 0.285714 0.500000
vt 0.285714 0.250000
vt 0.357143 1.000000
vt 0.285714 0.750000
vt 0.357143 0.000000
vt 0.142857 0.500000
vt 0.142857 0.250000
vt 0.214286 1.000000
vt 0.142857 0.750000
vt 0.214286 0.000000
vt 0.000000 0.500000
vt 0.000000 0.250000
vt 0.071429 1.000000
vt 0.000000 0.750000
vt 0.071429 0.000000
vt 1.000000 0.250000
vt 1.000000 0.500000
vt 0.857143 0.500000
vt 0.857143 0.250000
vt 1.000000 0.750000
vt 0.928571 1.000000
vt 0.857143 0.750000
vt 0.928571 0.000000
vt 0.785714 1.000000
vt 0.785714 0.000000
s 0
f 83/101/59 104/102/59 85/103/59 86/104/59
f 82/105/60 94/106/60 84/107/60
f 93/108/61 83/101/61 86/104/61
f 104/102/62 82/105/62 84/107/62 85/103/62
f 84/107/63 94/109/63 87/110/63
f 93/111/64 86/104/64 89/112/64
f 85/103/65 84/107/65 87/110/65 88/113/65
f 86/104/66 85/103/66 88/113/66 89/112/66
f 89/112/67 88/113/67 91/114/67 92/115/67
f 87/110/68 94/116/68 90/117/68
f 93/118/69 89/112/69 92/115/69
f 88/113/70 87/110/70 90/117/70 91/114/70
f 92/115/71 91/114/71 96/119/71 97/120/71
f 90/117/72 94/121/72 95/122/72
f 93/123/73 92/115/73 97/120/73
f 91/114/74 90/117/74 95/122/74 96/119/74
f 97/120/75 96/119/75 99/124/75 100/125/75
f 95/122/76 94/126/76 98/127/76
f 93/128/77 97/120/77 100/125/77
f 96/119/78 95/122/78 98/127/78 99/124/78
f 100/129/79 99/130/79 102/131/79 103/132/79
f 98/133/80 94/134/80 101/135/80
f 93/136/81 100/129/81 103/132/81
f 99/130/82 98/133/82 101/135/82 102/131/82
f 103/132/83 102/131/83 104/102/83 83/101/83
f 101/135/84 94/137/84 82/105/84
f 93/138/85 103/132/85 83/101/85
f 102/131/86 101/135/86 82/105/86 104/102/86
o Reye
v 0.286375 0.511565 -0.633113
v 0.286375 0.403701 -0.633113
v 0.328541 0.511565 -0.612807
v 0.346006 0.457633 -0.626736
v 0.328541 0.403701 -0.612807
v 0.338955 0.511565 -0.567180
v 0.360734 0.457633 -0.562209
v 0.338955 0.403701 -0.567180
v 0.309775 0.511565 -0.530590
v 0.319468 0.457633 -0.510463
v 0.309775 0.403701 -0.530590
v 0.286375 0.381361 -0.579181
v 0.286375 0.533904 -0.579181
v 0.262975 0.511565 -0.530590
v 0.253282 0.457633 -0.510463
v 0.262975 0.403701 -0.530590
v 0.233795 0.511565 -0.567180
v 0.212016 0.457633 -0.562209
v 0.233795 0.403701 -0.567180
v 0.244209 0.511565 -0.612807
v 0.226743 0.457633 -0.626736
v 0.244209 0.403701 -0.612807
v 0.286375 0.457633 -0.655453
vn 0.4065 -0.3496 -0.8441
vn 0.1812 0.9086 -0.3763
vn 0.1812 -0.9086 -0.3763
vn 0.4065 0.3496 -0.8441
vn 0.4072 0.9086 -0.0929
vn 0.4072 -0.9086 -0.0929
vn 0.9134 0.3496 -0.2085
vn 0.9134 -0.3496 -0.2085
vn 0.7325 -0.3496 0.5841
vn 0.3266 0.9086 0.2604
vn 0.3266 -0.9086 0.2604
vn 0.7325 0.3496 0.5841
vn -0.0000 -0.3496 0.9369
vn -0.0000 0.9086 0.4177
vn -0.0000 -0.9086 0.4177
vn -0.0000 0.3496 0.9369
vn -0.7325 -0.3496 0.5841
vn -0.3266 0.9086 0.2604
vn -0.3266 -0.9086 0.2604
vn -0.7325 0.3496 0.5841
vn -0.9134 -0.3496 -0.2085
vn -0.4072 0.9086 -0.0929
vn -0.4072 -0.9086 -0.0929
vn -0.9134 0.3496 -0.2085
vn -0.4065 -0.3496 -0.8441
vn -0.1812 0.9086 -0.3763
vn -0.1812 -0.9086 -0.3763
vn -0.4065 0.3496 -0.8441
vt 0.714286 0.250000
vt 0.714286 0.500000
vt 0.571429 0.500000
vt 0.571429 0.250000
vt 0.714286 0.750000
vt 0.642857 1.000000
vt 0.571429 0.750000
vt 0.642857 0.000000
vt 0.500000 1.000000
vt 0.428571 0.750000
vt 0.500000 0.000000
vt 0.428571 0.250000
vt 0.428571 0.500000
vt 0.285714 0.500000
vt 0.285714 0.250000
vt 0.357143 1.000000
vt 0.285714 0.750000
vt 0.357143 0.000000
vt 0.142857 0.500000
vt 0.142857 0.250000
vt 0.214286 1.000000
vt 0.142857 0.750000
vt 0.214286 0.000000
vt 0.000000 0.500000
vt 0.000000 0.250000
vt 0.071429 1.000000
vt 0.000000 0.750000
vt 0.071429 0.000000
vt 1.000000 0.250000
vt 1.000000 0.500000
vt 0.857143 0.500000
vt 0.857143 0.250000
vt 1.000000 0.750000
vt 0.928571 1.000000
vt 0.857143 0.750000
vt 0.928571 0.000000
vt 0.785714 1.000000
vt 0.785714 0.000000
s 0
f 106/139/87 127/140/87 108/141/87 109/142/87
f 105/143/88 117/144/88 107/145/88
f 116/146/89 106/139/89 109/142/89
f 127/140/90 105/143/90 107/145/90 108/141/90
f 107/145/91 117/147/91 110/148/91
f 116/149/92 109/142/92 112/150/92
f 108/141/93 107/145/93 110/148/93 111/151/93
f 109/142/94 108/141/94 111/151/94 112/150/94
f 112/150/95 111/151/95 114/152/95 115/153/95
f 110/148/96 117/154/96 113/155/96
f 116/156/97 112/150/97 115/153/97
f 111/151/98 110/148/98 113/155/98 114/152/98
f 115/153/99 114/152/99 119/157/99 120/158/99
f 113/155/100 117/159/100 118/160/100
f 116/161/101 115/153/101 120/158/101
f 114/152/102 113/155/102 118/160/102 119/157/102
f 120/158/103 119/157/103 122/162/103 123/163/103
f 118/160/104 117/164/104 121/165/104
f 116/166/105 120/158/105 123/163/105
f 119/157/106 118/160/106 121/165/106 122/162/106
f 123/167/107 122/168/107 125/169/107 126/170/107
f 121/171/108 117/172/108 124/173/108
f 116/174/109 123/167/109 126/170/109
f 122/168/110 121/171/110 124/173/110 125/169/110
f 126/170/111 125/169/111 127/140/111 106/139/111
f 124/173/112 117/175/112 105/143/112
f 116/176/113 126/170/113 106/139/113
f 125/169/114 124/173/114 105/143/114 127/140/114
o Cylinder
v 0.000000 0.666040 -1.740000
v 0.000000 0.676040 -1.740000
v 1.022746 0.666040 -1.407690
v 1.022746 0.676040 -1.407690
v 1.654838 0.666040 -0.537690
v 1.654838 0.676040 -0.537690
v 1.654838 0.666040 0.537690
v 1.654838 0.676040 0.537690
v 1.022746 0.666040 1.407690
v 1.022746 0.676040 1.407690
v 0.000000 0.666040 1.740000
v 0.000000 0.676040 1.740000
v -1.022746 0.666040 1.407690
v -1.022746 0.676040 1.407690
v -1.654838 0.666040 0.537690
v -1.654838 0.676040 0.537690
v -1.654838 0.666040 -0.537690
v -1.654838 0.676040 -0.537690
v -1.022746 0.666040 -1.407690
v -1.022746 0.676040 -1.407690
vn 0.3090 -0.0000 -0.9511
vn 0.8090 -0.0000 -0.5878
vn 1.0000 -0.0000 -0.0000
vn 0.8090 -0.0000 0.5878
vn 0.3090 -0.0000 0.9511
vn -0.3090 -0.0000 0.9511
vn -0.8090 -0.0000 0.5878
vn -1.0000 -0.0000 -0.0000
vn -0.0000 1.0000 -0.0000
vn -0.8090 -0.0000 -0.5878
vn -0.3090 -0.0000 -0.9511
vn -0.0000 -1.0000 -0.0000
vt 1.000000 0.500000
vt 1.000000 1.000000
vt 0.900000 1.000000
vt 0.900000 0.500000
vt 0.800000 1.000000
vt 0.800000 0.500000
vt 0.700000 1.000000
vt 0.700000 0.500000
vt 0.600000 1.000000
vt 0.600000 0.500000
vt 0.500000 1.000000
vt 0.500000 0.500000
vt 0.400000 1.000000
vt 0.400000 0.500000
vt 0.300000 1.000000
vt 0.300000 0.500000
vt 0.200000 1.000000
vt 0.200000 0.500000
vt 0.391068 0.444164
vt 0.250000 0.490000
vt 0.108932 0.444164
vt 0.021746 0.324164
vt 0.021746 0.175836
vt 0.108932 0.055836
vt 0.250000 0.010000
vt 0.391068 0.055836
vt 0.478254 0.175836
vt 0.478254 0.324164
vt 0.100000 1.000000
vt 0.100000 0.500000
vt -0.000000 1.000000
vt -0.000000 0.500000
vt 0.750000 0.490000
vt 0.891068 0.444164
vt 0.978254 0.324164
vt 0.978254 0.175836
vt 0.891068 0.055836
vt 0.750000 0.010000
vt 0.608932 0.055836
vt 0.521746 0.175836
vt 0.521746 0.324164
vt 0.608932 0.444164
s 0
usemtl Hat
f 128/177/115 129/178/115 131/179/115 130/180/115
f 130/180/116 131/179/116 133/181/116 132/182/116
f 132/182/117 133/181/117 135/183/117 134/184/117
f 134/184/118 135/183/118 137/185/118 136/186/118
f 136/186/119 137/185/119 139/187/119 138/188/119
f 138/188/120 139/187/120 141/189/120 140/190/120
f 140/190/121 141/189/121 143/191/121 142/192/121
f 142/192/122 143/191/122 145/193/122 144/194/122
f 131/195/123 129/196/123 147/197/123 145/198/123 143/199/123 141/200/123 139/201/123 137/202/123 135/203/123 133/204/123
f 144/194/124 145/193/124 147/205/124 146/206/124
f 146/206/125 147/205/125 129/207/125 128/208/125
f 128/209/126 130/210/126 132/211/126 134/212/126 136/213/126 138/214/126 140/215/126 142/216/126 144/217/126 146/218/126
